<svg width="1102" height="689" viewBox="0 0 1102 689" fill="none" xmlns="http://www.w3.org/2000/svg">
<path d="M945.687 29.1567C937.281 19.5595 926.949 15.3089 917.447 12.2206C851.865 -9.09898 785.619 8.46806 785.586 8.46806C683.26 35.599 598.708 98.2958 587.811 106.365C521.299 155.613 425.351 223.689 295.882 305.912C293.723 308.104 281.098 321.254 282.693 339.784C284.42 360.075 302.028 373.623 316.58 377.442C336.779 382.722 355.882 370.602 365.55 364.259C403.325 339.519 472.661 292.961 561.432 230.597C569.538 235.644 580.302 241.721 593.459 247.533C593.459 247.533 618.708 258.724 646.183 264.469C700.901 275.925 758.177 263.506 770.503 260.716C809.971 251.684 872.464 237.371 917.414 183.541C928.112 170.689 944.956 147.078 953.195 113.87C957.713 95.6723 967.913 54.5276 945.653 29.1567H945.687Z" fill="#0195DF"/>
<path d="M979.607 44.233C983.461 64.9548 987.149 101.384 973.96 142.13C947.082 225.017 871.368 260.716 846.683 272.372C764.39 311.159 686.848 295.385 661.3 289.009C732.23 345.496 803.194 401.983 874.125 458.437C923.727 420.148 973.328 381.859 1022.93 343.603C1039.21 332.08 1071.24 305.813 1088.84 260.783C1097.22 239.397 1099.61 220.568 1100.14 211.834C1103.76 153.288 1054.79 88.6654 979.607 44.2662V44.233Z" fill="#0195DF"/>
<path d="M518.143 104.472C463.99 74.8177 418.042 52.4023 384.421 36.6949C332.328 12.3866 316.48 7.3722 297.776 4.68235C245.118 -2.92229 203.191 12.5526 173.456 23.5113C143.257 34.6692 76.346 59.3427 32.1929 125.161C18.6048 145.484 -1.42852 176.235 2.05988 215.553C4.65126 244.81 19.1032 265.797 28.0401 277.951C81.1633 350.112 154.087 400.987 184.752 422.638C184.752 422.638 251.696 469.894 371.232 561.946C429.172 606.578 475.053 644.867 504.721 670.237C510.202 673.824 519.239 678.971 531.332 682.425C545.419 686.443 561.399 691.026 572.761 682.425C581.831 675.584 585.651 662.799 584.057 652.305C581.499 635.303 565.12 625.075 557.678 620.293C533.093 604.452 500.601 579.746 454.089 539.331C445.916 531.793 437.777 524.255 429.604 516.75C429.039 515.09 427.312 509.245 430.235 504.197C434.056 497.589 444.488 494.667 454.72 499.183C522.096 551.486 589.505 603.788 656.881 656.058C660.934 660.441 668.775 667.68 680.735 671.732C686.616 673.758 707.878 680.997 722.164 668.61C728.941 662.732 735.154 651.608 732.197 639.753C729.706 629.69 721.865 624.244 719.639 622.816C651.831 571.975 584.024 521.167 516.216 470.325C508.774 467.071 504.521 459.898 505.551 453.389C507.08 443.825 519.139 441.169 520.634 440.836C531.997 438.346 540.9 446.15 541.997 447.113C626.117 511.337 710.27 575.561 794.39 639.786C799.639 642.642 807.547 646.261 817.613 648.586C830.869 651.608 843.626 654.497 852.131 647.324C862.298 638.756 859.407 621.721 859.042 619.728C855.587 600.966 837.945 592.464 835.819 591.501C754.623 529.568 673.426 467.669 592.23 405.736C586.416 397.766 585.452 388.169 589.705 382.523C596.117 374.022 611.266 378.505 614.19 379.402C626.084 382.922 633.06 391.755 634.29 393.216C645.851 407.296 704.888 453.987 827.646 544.445C833.427 545.608 841.866 546.903 852.131 546.969C869.308 547.069 880.338 547.135 885.421 540.062C892.464 530.266 883.56 512.931 878.51 505.559C872.763 497.191 865.554 492.409 860.936 489.885L606.648 287.814C601.299 284.692 592.661 280.575 581.532 279.014C559.372 275.959 541.399 285.224 531.93 290.305C491.099 312.288 465.95 333.973 431.464 356.82C388.84 385.08 362.793 394.677 339.803 399.492C314.321 404.839 300.201 402.714 288.939 398.231C285.616 396.902 258.673 385.678 248.772 357.451C239.171 330.121 249.337 297.61 274.52 276.49C314.686 252.182 356.746 224.885 400.102 194.267C442.893 164.048 482.196 133.895 518.143 104.539V104.472Z" fill="#26186F"/>
<path d="M229.038 481.948C245.683 496.393 262.327 510.806 278.939 525.251C272.826 530 262.693 536.774 248.806 541.258C232.659 546.471 202.227 551.552 195.118 540.328C188.473 529.867 202.36 505.592 229.005 481.981L229.038 481.948Z" fill="#0195DF"/>
<path d="M307.178 547.833C324.121 561.016 341.065 574.2 358.042 587.384C334.088 604.386 316.513 617.271 302.493 627.864C297.244 631.816 289.171 637.993 277.078 640.118C274.719 640.516 252.028 644.302 243.191 632.58C235.217 622.019 239.536 600.169 258.274 583.93C274.586 571.909 290.932 559.887 307.244 547.833H307.178Z" fill="#0195DF"/>
<path d="M390.999 610.928C405.451 623.481 419.87 636.033 434.321 648.586C428.873 654.231 418.939 662.998 404.188 668.345C394.72 671.798 369.404 680.997 356.148 667.415C347.444 658.482 347.112 642.907 352.394 631.65C358.839 617.868 374.255 609.4 390.999 610.928Z" fill="#0195DF"/>
</svg>
